<?xml version="1.0" encoding="utf-8"?>
<svg xmlns="http://www.w3.org/2000/svg" xmlns:xlink="http://www.w3.org/1999/xlink" version="1.1" viewBox="0 0 160 400" enable-background="new 0 0 160 400" width="400px" height="160px">
<g>
<polyline points="0,80 10,80 30,65 50,15 50,145 55,80 110,15 60,80, 110,145 150,145 155,140 157.5,80 160,140 165,145 205,145 230,115 210,80 235,114 260,80 240,115 265,145 295,145 300,140 302.5,80 305,140 310,145 320,145 340,115 370,90 390,80 400,80" style="fill:none;stroke:White;stroke-width:2" />
</g>
</svg>